PathFileType	4	(X/Y/Z)	Patient4_TMGait_0pt4_03_right_13.trc.trc
DataRate	CameraRate	NumFrames	NumMarkers	Units	OrigDataRate	OrigDataStartFrame	OrigNumFrames
78.212290502793	78.212290502793	4	33	mm	78.212290502793	124	       141
Frame#	Time	Sacral			L.Shoulder			Chest			R.Shoulder			Neck			R.ASIS			L.ASIS			R.Thigh.Superior			R.Thigh.Lateral			R.Thigh.Inferior			R.Patella			L.Thigh.Superior			L.Thigh.Lateral			L.Thigh.Inferior			L.Patella			L.Shank.Superior			L.Shank.Lateral			L.Shank.Inferior			R.Shank.Superior			R.Shank.Lateral			R.Shank.Inferior			R.Heel			R.Midfoot.Superior			R.Midfoot.Lateral			R.Toe			L.Heel			L.Midfoot.Lateral			L.Midfoot.Superior			L.Toe			L.Elbow			L.Wrist			R.Elbow			R.Wrist			
		X1	Y1	Z1	X2	Y2	Z2	X3	Y3	Z3	X4	Y4	Z4	X5	Y5	Z5	X6	Y6	Z6	X7	Y7	Z7	X8	Y8	Z8	X9	Y9	Z9	X10	Y10	Z10	X11	Y11	Z11	X12	Y12	Z12	X13	Y13	Z13	X14	Y14	Z14	X15	Y15	Z15	X16	Y16	Z16	X17	Y17	Z17	X18	Y18	Z18	X19	Y19	Z19	X20	Y20	Z20	X21	Y21	Z21	X22	Y22	Z22	X23	Y23	Z23	X24	Y24	Z24	X25	Y25	Z25	X26	Y26	Z26	X27	Y27	Z27	X28	Y28	Z28	X29	Y29	Z29	X30	Y30	Z30	X31	Y31	Z31	X32	Y32	Z32	X33	Y33	Z33	

124	17.702642857143	819.069239618939	1004.487153097787	449.650282142498	1021.132384031856	1428.073299528853	274.993057376166	1108.828314890620	1358.257499930236	444.022610114703	1014.093408562001	1433.498275243296	611.512920496051	993.053896880346	1492.002231815418	431.493458200599	1038.948398525416	939.618379238221	584.666846848198	1047.202293097924	960.382576218138	306.973088748379	1098.951730404925	749.976378187562	558.755744343955	1034.133325553017	633.931625047802	624.465012427833	1119.667227724576	591.651654296499	545.547626282765	1137.569177299118	510.380493945016	556.611297168962	1054.312211732673	731.176713587073	336.663495043260	947.129825098853	633.941507835461	262.945720020544	1008.680645163574	541.848184107298	328.241332730030	995.423863689116	474.195859518785	334.075271726377	962.296528238763	407.308594671264	321.531153794666	860.330997814311	305.690116822293	266.348214770269	895.550219979235	186.476483785563	332.859968842133	1123.313609614998	419.981935915171	569.146963212037	1066.894611906213	308.177073361028	632.623550368147	1131.182175012335	220.009171944771	578.386230891701	1031.003784591128	41.307480053742	552.652195232178	1197.710282571782	104.549999334194	586.902438710587	1115.703159361937	38.213107812199	625.595485579682	1320.655767184096	61.649186288657	612.220551532238	756.429797572422	37.433736716149	372.398818454269	826.051226874383	34.395350742171	288.066560080229	911.136911824406	95.343727849036	313.464253126653	1038.191456372530	42.234144088567	276.008640159843	1019.342454447903	1082.691717568190	141.533397155904	1206.657010770051	902.439136429158	180.675260855255	937.095849839882	1096.416701329622	734.830697106189	977.658314155441	840.041666448655	762.803451930468	
125	17.715428571429	821.476603766237	1003.289579194308	452.914934519523	1021.766352151606	1427.433049358439	278.499552802424	1109.921710685892	1358.061251426558	447.481048933132	1014.922079482243	1432.796549434918	615.105856451772	993.686498112265	1491.309925481111	435.088771811629	1041.637558283502	938.976961597714	587.761949846299	1049.175558266087	959.269710785077	310.441499342642	1101.944879350946	748.955296253771	561.775412663524	1035.303998332743	632.704411124847	625.870699109434	1121.440964286782	590.619256133390	547.592021188543	1137.546637855574	508.471989343365	557.887168504882	1056.330054012501	729.915677458813	339.065796466342	948.286189862717	632.988549778206	265.726419622110	1010.170508167730	540.416281345338	330.221527712242	996.885314675840	472.137454293000	335.635780969731	962.176272362407	405.898781501757	323.127151867853	858.249000893422	306.178155191504	267.758193471998	891.844876624383	185.943482645823	333.338742886272	1122.668834110613	417.902841437323	569.937615124367	1064.643097308348	306.585246936893	632.742544954328	1127.560102483249	217.862703109786	578.055345226130	1024.481700415838	41.648397356923	551.523558318064	1191.962312348804	102.168500174707	586.062384208545	1108.760467245709	37.759614408044	624.962853715443	1314.389755833008	57.350304507702	612.028169090324	751.228288158177	37.780000396928	372.302038088352	820.936614575567	34.441881976777	288.111798148088	906.221437732778	95.232786633969	313.441481697221	1033.158494867823	41.806071763582	275.895881059012	1019.213249081658	1081.397631830443	146.351982132466	1205.823167206827	900.109153388468	184.472815723237	939.894607175730	1094.842387130911	737.455573955393	984.354608242580	838.616480718622	763.143584750805	
126	17.728214285714	823.803264750708	1002.208598238785	456.305073624689	1022.335709948957	1426.895161863870	282.099327673685	1111.012754715057	1357.964866534383	451.008697408859	1015.807745507058	1432.214380303087	618.794402761902	994.328225328031	1490.726046086533	438.782240659792	1044.304718693014	938.479223999429	590.941804129412	1050.920415592457	958.184258610768	314.056854035185	1105.158044753778	748.225577892654	564.810004150602	1036.997623641063	631.824810108662	627.435935610462	1123.641395136493	589.878721392578	549.676959683077	1138.211600338937	506.811582960692	559.264781040047	1058.744917487105	728.852620294855	341.504443930999	950.075618974795	631.956030940650	268.668084355757	1012.702276050253	539.020750482528	332.231501071424	999.561839757346	469.928666873436	337.148578126435	962.952701720131	404.397064993042	324.763204988048	856.815277726823	306.923308335180	269.265382799772	888.554770018527	185.604584060413	333.824284460349	1122.503052908858	416.074225880480	570.757363423941	1062.967146664315	305.335055279926	633.200140533648	1124.120957815740	215.926918711954	577.808151502448	1017.809036207513	42.012770432375	550.745673006936	1186.050243207275	100.192949328970	585.372636541617	1101.792394113112	37.453684986365	624.551747474553	1308.056425693945	53.628590013134	611.815876073389	746.082550886842	38.691334292001	372.165983103713	815.862825147120	34.792442178729	288.148473355417	901.502100100508	95.201512747611	313.353929698814	1028.119724431144	41.300256995417	275.748732660267	1018.763908894841	1080.178649216347	151.328155791775	1204.475785551015	897.568420556517	187.956454933720	943.039311305273	1093.342537325969	740.249470578680	991.719390956091	837.389025886737	763.604806563846	
127	17.741000000000	826.006118047173	1001.308228401412	459.796559638670	1022.864315417345	1426.504152367895	285.767570009404	1112.102982824088	1357.980075430710	454.577926034344	1016.773050918716	1431.790153538138	622.546848057707	994.997472511169	1490.291308421996	442.544922022531	1046.889757902865	938.150817999901	594.193946432673	1052.442253163674	957.211385823954	317.764090809400	1108.408649123397	747.771785074775	567.820216229435	1039.114169547807	631.300543083283	629.204215851535	1126.061047057079	589.405896008430	551.764353812639	1139.383668005947	505.439803095011	560.750758547364	1061.554212738666	728.069395306851	343.998927932821	952.586988138628	630.888517906862	271.730037191906	1016.378435350652	537.734427240592	334.259003651298	1003.549313699019	467.649850137215	338.584839193540	964.741211250949	402.869798933083	326.406925775806	856.168942032293	308.016101461539	270.839677028613	885.795527248293	185.572274573063	334.299767856394	1122.706862520398	414.542437080204	571.644416504635	1061.848276799357	304.422863149782	634.015498874149	1120.967360212018	214.271822933703	577.690140396951	1011.331077420591	42.337456069527	550.316305876772	1180.251601377752	98.689814147191	584.877080524651	1095.135632063612	37.270929164092	624.362314067159	1301.946079621635	50.656331457562	611.630202503521	741.058065452362	40.409511468882	371.992040300509	810.868421955523	35.611570577566	288.170912696245	897.065459647032	95.313986024909	313.188913669335	1023.070321657137	40.713640558317	275.570688237782	1018.006266364616	1079.094433562415	156.436506059002	1202.582780248218	894.855364987756	191.109769914609	946.501842463994	1091.980698595917	743.199147499608	999.695612269615	836.452825257884	764.216062144706	
